<svg width="48" height="48" viewBox="0 0 48 48" fill="none" xmlns="http://www.w3.org/2000/svg">
<g clip-path="url(#clip0_1_345)">
<path d="M24 44.4375C12.7127 44.4375 3.5625 35.2873 3.5625 24C3.5625 12.7127 12.7127 3.5625 24 3.5625C35.2873 3.5625 44.4375 12.7127 44.4375 24C44.4437 35.2811 35.3036 44.4313 24.0225 44.4375C24.015 44.4375 24.0075 44.4375 24 44.4375ZM24 17.6681C20.503 17.6681 17.6681 20.503 17.6681 24C17.6681 27.497 20.503 30.3319 24 30.3319C27.497 30.3319 30.3319 27.497 30.3319 24C30.3282 20.5045 27.4955 17.6718 24 17.6681Z" fill="#FFE145"/>
<path d="M24 48C10.7353 48 0 37.2656 0 24C0 10.7344 10.7344 0 24 0C37.2656 0 48 10.7344 48 24C48 37.2656 37.2656 48 24 48ZM24 1.5C11.5641 1.5 1.5 11.5631 1.5 24C1.5 36.4369 11.5631 46.5 24 46.5C36.4369 46.5 46.5 36.4369 46.5 24C46.5 11.5631 36.4369 1.5 24 1.5ZM24 31.0819C20.0887 31.0819 16.9181 27.9113 16.9181 24C16.9181 20.0887 20.0887 16.9181 24 16.9181C27.9113 16.9181 31.0819 20.0887 31.0819 24C31.0778 27.9095 27.9095 31.0778 24 31.0819ZM24 18.4191C20.9172 18.4191 18.4181 20.9182 18.4181 24.0009C18.4181 27.0837 20.9172 29.5828 24 29.5828C27.0828 29.5828 29.5819 27.0837 29.5819 24.0009C29.5819 24.0007 29.5819 24.0003 29.5819 24C29.5788 20.9185 27.0815 18.4212 24 18.4181V18.4191Z" fill="#B79C10"/>
<path d="M28.5693 12.5016V10.8984C28.5693 10.4842 28.2335 10.1484 27.8193 10.1484C27.4051 10.1484 27.0693 10.4842 27.0693 10.8984V12.5016C27.0693 12.9158 27.4051 13.2516 27.8193 13.2516C28.2335 13.2516 28.5693 12.9158 28.5693 12.5016Z" fill="#B79C10"/>
<path d="M35.4944 11.1969V9.59375C35.4944 9.17954 35.1586 8.84375 34.7444 8.84375C34.3302 8.84375 33.9944 9.17954 33.9944 9.59375V11.1969C33.9944 11.6111 34.3302 11.9469 34.7444 11.9469C35.1586 11.9469 35.4944 11.6111 35.4944 11.1969Z" fill="#B79C10"/>
<path d="M36.4895 22.1654V20.5623C36.4895 20.148 36.1537 19.8123 35.7395 19.8123C35.3253 19.8123 34.9895 20.148 34.9895 20.5623V22.1654C34.9895 22.5796 35.3253 22.9154 35.7395 22.9154C36.1537 22.9154 36.4895 22.5796 36.4895 22.1654Z" fill="#B79C10"/>
<path d="M30.502 40.7574V39.1543C30.502 38.7401 30.1662 38.4043 29.752 38.4043C29.3377 38.4043 29.002 38.7401 29.002 39.1543V40.7574C29.002 41.1716 29.3377 41.5074 29.752 41.5074C30.1662 41.5074 30.502 41.1716 30.502 40.7574Z" fill="#B79C10"/>
<path d="M23.9495 35.9747V34.3716C23.9495 33.9574 23.6137 33.6216 23.1995 33.6216C22.7852 33.6216 22.4495 33.9574 22.4495 34.3716V35.9747C22.4495 36.3889 22.7852 36.7247 23.1995 36.7247C23.6137 36.7247 23.9495 36.3889 23.9495 35.9747Z" fill="#B79C10"/>
<path d="M17.7522 39.4061V37.803C17.7522 37.3888 17.4164 37.053 17.0022 37.053C16.588 37.053 16.2522 37.3888 16.2522 37.803V39.4061C16.2522 39.8203 16.588 40.1561 17.0022 40.1561C17.4164 40.1561 17.7522 39.8203 17.7522 39.4061Z" fill="#B79C10"/>
<path d="M41.5466 29.6466V28.0435C41.5466 27.6292 41.2108 27.2935 40.7966 27.2935C40.3824 27.2935 40.0466 27.6292 40.0466 28.0435V29.6466C40.0466 30.0608 40.3824 30.3966 40.7966 30.3966C41.2108 30.3966 41.5466 30.0608 41.5466 29.6466Z" fill="#B79C10"/>
<path d="M33.718 32.355V30.7518C33.718 30.3376 33.3822 30.0018 32.968 30.0018C32.5538 30.0018 32.218 30.3376 32.218 30.7518V32.355C32.218 32.7692 32.5538 33.105 32.968 33.105C33.3822 33.105 33.718 32.7692 33.718 32.355Z" fill="#B79C10"/>
<path d="M14.9709 18.763V17.1599C14.9709 16.7457 14.6352 16.4099 14.2209 16.4099C13.8067 16.4099 13.4709 16.7457 13.4709 17.1599V18.763C13.4709 19.1773 13.8067 19.513 14.2209 19.513C14.6352 19.513 14.9709 19.1773 14.9709 18.763Z" fill="#B79C10"/>
<path d="M18.3196 8.50124V6.89905C18.3196 6.48483 17.9838 6.14905 17.5696 6.14905C17.1554 6.14905 16.8196 6.48483 16.8196 6.89905V8.50124C16.8196 8.91545 17.1554 9.25124 17.5696 9.25124C17.9838 9.25124 18.3196 8.91545 18.3196 8.50124Z" fill="#B79C10"/>
<path d="M7.5625 24.5006V22.8975C7.5625 22.4832 7.22671 22.1475 6.8125 22.1475C6.39829 22.1475 6.0625 22.4832 6.0625 22.8975V24.5006C6.0625 24.9148 6.39829 25.2506 6.8125 25.2506C7.22671 25.2506 7.5625 24.9148 7.5625 24.5006Z" fill="#B79C10"/>
<path d="M14.5435 31.6107V30.0076C14.5435 29.5934 14.2077 29.2576 13.7935 29.2576C13.3792 29.2576 13.0435 29.5934 13.0435 30.0076V31.6107C13.0435 32.0249 13.3792 32.3607 13.7935 32.3607C14.2077 32.3607 14.5435 32.0249 14.5435 31.6107Z" fill="#B79C10"/>
</g>
<defs>
<clipPath id="clip0_1_345">
<rect width="48" height="48" fill="white"/>
</clipPath>
</defs>
</svg>
