<svg width="48" height="48" viewBox="0 0 48 48" fill="none" xmlns="http://www.w3.org/2000/svg">
<g clip-path="url(#clip0_1_317)">
<circle cx="23" cy="25" r="23" fill="#FFE145"/>
<path d="M25.0001 45.9999C29.1792 46.0037 33.2798 44.8653 36.8589 42.7079C37.2214 42.4888 37.3375 42.0173 37.1184 41.6549C36.8993 41.2924 36.4279 41.1762 36.0654 41.3953C29.0758 45.5905 20.3132 45.4647 13.4469 41.0706C6.58068 36.6765 2.7958 28.7724 3.67727 20.6683C4.55874 12.5642 9.95444 5.65866 17.6048 2.8435C18.0024 2.69763 18.2065 2.25707 18.0606 1.85948C17.9148 1.46189 17.4742 1.25783 17.0766 1.4037C6.6027 5.241 0.3921 16.0407 2.34342 27.0234C4.29474 38.0061 13.8454 46.0054 25.0001 45.9999Z" fill="#313030"/>
<path d="M32.3955 2.8435C38.4512 5.06845 43.1861 9.89758 45.2913 15.996C47.3964 22.0944 46.6489 28.816 43.2553 34.3029C43.111 34.5357 43.1018 34.8279 43.2313 35.0693C43.3607 35.3107 43.6091 35.4647 43.8829 35.4733C44.1567 35.4819 44.4143 35.3438 44.5587 35.111C48.1956 29.2323 48.9971 22.0302 46.7416 15.4958C44.4861 8.96141 39.4125 3.78716 32.9237 1.4037C32.5261 1.25783 32.0856 1.46189 31.9397 1.85948C31.7938 2.25707 31.9979 2.69763 32.3955 2.8435Z" fill="#313030"/>
<path d="M21.9333 14.2446V20.7237C21.1201 21.799 20.9374 23.2247 21.4533 24.4703C21.9692 25.7159 23.1064 26.595 24.4418 26.7804L30.4165 32.755L30.4211 32.7619L41.2633 43.6003C41.5509 43.888 41.941 44.0496 42.3477 44.0496C42.7545 44.0496 43.1446 43.888 43.4322 43.6003C45.8334 41.1983 44.4143 38.0803 38.0111 31.674L34.7581 28.421H34.7528L28.7766 22.441C28.6857 21.8187 28.4418 21.2286 28.0667 20.7237V14.2431C29.4645 13.6363 30.3683 12.2571 30.3667 10.7333V2.29992C30.3709 1.68939 30.1265 1.10342 29.6897 0.676889C29.6534 0.63768 29.6139 0.601525 29.5716 0.568788C28.7005 -0.200403 27.3891 -0.187498 26.5333 0.598688C26.1094 0.207203 25.5517 -0.00706154 24.9747 -7.86756e-05C24.4152 0.0121544 23.8786 0.224289 23.462 0.597922C22.6141 -0.182239 21.3154 -0.201051 20.4452 0.554222C19.9286 0.986531 19.631 1.62627 19.6333 2.29992V10.7333C19.6311 12.2577 20.535 13.6376 21.9333 14.2446ZM30.9647 31.1266L26.3946 26.5573C27.3865 26.1677 28.1715 25.3827 28.5612 24.3907L33.1267 28.9646L30.9647 31.1266ZM26.5333 19.4917C25.557 19.0582 24.4429 19.0582 23.4666 19.4917V14.5666H26.5333V19.4917ZM22.7 22.9999C22.7 21.7297 23.7297 20.6999 25 20.6999C26.2702 20.6999 27.3 21.7297 27.3 22.9999C27.3 24.2702 26.2702 25.2999 25 25.2999C23.7297 25.2999 22.7 24.2702 22.7 22.9999ZM42.3474 42.5162L32.048 32.216L34.2161 30.0479L36.927 32.7581C44.5163 40.3473 43.1593 41.7066 42.3474 42.5162ZM21.1666 2.29992C21.1687 2.07366 21.2705 1.85985 21.4449 1.71572C21.7493 1.45629 22.2032 1.47915 22.4799 1.76786C22.6221 1.90823 22.7015 2.10013 22.7 2.29992V8.43326C22.7 8.85668 23.0432 9.19993 23.4666 9.19993C23.8901 9.19993 24.2333 8.85668 24.2333 8.43326V2.29992C24.2392 1.89963 24.5468 1.56857 24.9456 1.53326H25.0721C25.4652 1.5743 25.7645 1.90464 25.7667 2.29992V8.43326C25.7667 8.85668 26.1099 9.19993 26.5333 9.19993C26.9567 9.19993 27.3 8.85668 27.3 8.43326V2.29992C27.3 1.8765 27.6432 1.53326 28.0667 1.53326C28.4901 1.53326 28.8333 1.8765 28.8333 2.29992V10.7333C28.8339 11.7879 28.1157 12.7073 27.0922 12.962C26.9102 13.0117 26.722 13.0357 26.5333 13.0333H23.4666C23.2713 13.035 23.0767 13.0092 22.8886 12.9566C21.8736 12.6967 21.1644 11.781 21.1666 10.7333V2.29992Z" fill="#313030"/>
<path d="M18.0304 5.96003C17.8542 5.57526 17.3995 5.40608 17.0146 5.58207C16.4879 5.8228 15.9811 6.09343 15.4813 6.37787C15.459 6.3886 15.4353 6.3886 15.4138 6.40087C15.3923 6.41313 15.3747 6.4392 15.3517 6.4553C12.5044 8.12006 10.1349 10.4914 8.4724 13.34C8.44701 13.3637 8.42344 13.3894 8.40186 13.4166C8.38948 13.4458 8.37923 13.4757 8.3712 13.5063C4.98213 19.3996 4.98797 26.6518 8.38653 32.5396C8.3942 32.5534 8.39343 32.5695 8.40186 32.5833C8.4103 32.5971 8.42946 32.6178 8.4425 32.6362C10.1198 35.5059 12.5101 37.8935 15.3816 39.5677C15.3946 39.5769 15.4023 39.5907 15.4169 39.5991C15.4386 39.6094 15.4609 39.6186 15.4836 39.6267C21.1971 42.908 28.1975 43.0166 34.0101 39.9142C34.259 39.7891 34.4204 39.5389 34.4318 39.2605C34.4432 38.9822 34.3027 38.7196 34.0649 38.5746C33.8271 38.4296 33.5293 38.425 33.2871 38.5626C30.9648 39.7983 28.3951 40.4978 25.7669 40.6096V39.1C25.7669 38.6766 25.4236 38.3333 25.0002 38.3333C24.5768 38.3333 24.2335 38.6766 24.2335 39.1V40.6142C21.6596 40.5048 19.1415 39.8286 16.859 38.6339L17.6141 37.3267C17.7533 37.0894 17.7546 36.7957 17.6176 36.5571C17.4805 36.3185 17.2262 36.1717 16.9511 36.1723C16.6759 36.1729 16.4222 36.3209 16.2863 36.56L15.5326 37.8634C13.3638 36.4765 11.5222 34.6349 10.1353 32.466L11.4386 31.7124C11.6778 31.5764 11.8258 31.3227 11.8264 31.0476C11.827 30.7725 11.6801 30.5181 11.4416 30.3811C11.203 30.2441 10.9093 30.2454 10.672 30.3845L9.36863 31.1397C8.17328 28.8578 7.49631 26.3403 7.38603 23.7666H8.9002C9.32362 23.7666 9.66686 23.4234 9.66686 23C9.66686 22.5766 9.32362 22.2333 8.9002 22.2333H7.39523C7.50765 19.6615 8.18368 17.1458 9.37553 14.8641L10.6735 15.6139C10.9108 15.753 11.2045 15.7543 11.4431 15.6173C11.6817 15.4803 11.8285 15.2259 11.8279 14.9508C11.8273 14.6757 11.6793 14.422 11.4402 14.286L10.1368 13.5332C11.52 11.3617 13.3614 9.51904 15.5319 8.1343L16.2863 9.43764C16.4222 9.6768 16.6759 9.82477 16.9511 9.82537C17.2262 9.82598 17.4805 9.67913 17.6176 9.44056C17.7546 9.202 17.7533 8.90831 17.6141 8.67097L16.8636 7.36763C17.1242 7.23193 17.3834 7.09394 17.6525 6.9705C18.0342 6.7943 18.2028 6.34352 18.0304 5.96003Z" fill="#313030"/>
<path d="M40.8585 32.3379C41.0375 32.4345 41.2474 32.4561 41.4422 32.3978C41.6371 32.3396 41.8008 32.2064 41.8974 32.0274C45.0159 26.2225 44.9145 19.2184 41.629 13.5063C41.621 13.4757 41.6107 13.4457 41.5984 13.4166C41.5771 13.3893 41.5537 13.3637 41.5286 13.3399C39.8648 10.491 37.494 8.11964 34.6455 6.45526C34.6225 6.43916 34.6079 6.41539 34.5833 6.40083C34.5613 6.39227 34.5387 6.38485 34.5159 6.37859C34.0191 6.09339 33.5123 5.82276 32.9825 5.58203C32.6012 5.42548 32.1644 5.59847 31.9936 5.97363C31.8228 6.34879 31.9793 6.79184 32.3477 6.97659C32.6168 7.10003 32.876 7.23803 33.1366 7.37373L32.3861 8.67706C32.2469 8.9144 32.2456 9.20809 32.3827 9.44665C32.5197 9.68522 32.774 9.83207 33.0492 9.83146C33.3243 9.83086 33.578 9.68289 33.714 9.44373L34.4683 8.14039C36.6388 9.52513 38.4802 11.3678 39.8634 13.5393L38.5601 14.2921C38.3209 14.4281 38.1729 14.6818 38.1723 14.9569C38.1717 15.232 38.3186 15.4864 38.5571 15.6234C38.7957 15.7604 39.0894 15.7591 39.3267 15.62L40.6247 14.8702C41.8157 17.1501 42.4917 19.6636 42.605 22.2333H41.1C40.6766 22.2333 40.3334 22.5765 40.3334 22.9999C40.3334 23.4233 40.6766 23.7666 41.1 23.7666H42.6096C42.4995 26.4008 41.7947 28.9759 40.548 31.2991C40.4514 31.478 40.4299 31.688 40.4881 31.8828C40.5463 32.0776 40.6796 32.2414 40.8585 32.3379Z" fill="#313030"/>
</g>
<defs>
<clipPath id="clip0_1_317">
<rect width="48" height="48" fill="white"/>
</clipPath>
</defs>
</svg>
