<svg width="151" height="20" viewBox="0 0 151 20" fill="none" xmlns="http://www.w3.org/2000/svg">
<g id="Button/Logo">
<rect id="Rectangle 19" x="0.0195312" y="8.98401" width="70.9287" height="10.6034" fill="#FFE145"/>
<g id="yellowkitchen">
<path d="M12.3856 4.58611L6.06563 19.5875H2.46539L4.44161 15.1373L0 4.58611H3.73721L6.26129 11.418L8.76581 4.58611H12.3856Z" fill="#3F4255"/>
<path d="M24.8659 9.87149C24.8659 10.1847 24.8463 10.511 24.8072 10.8503H17.2349C17.2871 11.5289 17.5023 12.0509 17.8806 12.4163C18.2719 12.7687 18.7481 12.9448 19.309 12.9448C20.1438 12.9448 20.7243 12.5925 21.0504 11.8878H24.6115C24.4289 12.6055 24.0962 13.2515 23.6136 13.8257C23.144 14.4 22.5505 14.8502 21.8331 15.1765C21.1156 15.5027 20.3134 15.6658 19.4264 15.6658C18.3567 15.6658 17.4045 15.4375 16.5697 14.9807C15.7348 14.5239 15.0826 13.8714 14.613 13.0232C14.1434 12.1749 13.9086 11.1831 13.9086 10.0477C13.9086 8.91229 14.1369 7.92047 14.5934 7.0722C15.063 6.22393 15.7152 5.57141 16.5501 5.11465C17.3849 4.65789 18.3437 4.4295 19.4264 4.4295C20.483 4.4295 21.4222 4.65136 22.2439 5.09507C23.0657 5.53878 23.7049 6.17172 24.1615 6.9939C24.6311 7.81607 24.8659 8.77527 24.8659 9.87149ZM21.4417 8.9906C21.4417 8.41638 21.2461 7.95962 20.8547 7.62031C20.4634 7.281 19.9742 7.11135 19.3872 7.11135C18.8263 7.11135 18.3502 7.27448 17.9589 7.60074C17.5806 7.92699 17.3458 8.39028 17.2545 8.9906H21.4417Z" fill="#3F4255"/>
<path d="M30.9552 0.0119731V15.5092H27.6093V0.0119731H30.9552Z" fill="#3F4255"/>
<path d="M37.7041 0.0119731V15.5092H34.3582V0.0119731H37.7041Z" fill="#3F4255"/>
<path d="M46.0771 15.6658C45.0074 15.6658 44.0421 15.4375 43.1812 14.9807C42.3333 14.5239 41.6615 13.8714 41.1659 13.0232C40.6832 12.1749 40.4419 11.1831 40.4419 10.0477C40.4419 8.92535 40.6897 7.94004 41.1854 7.09177C41.6811 6.23045 42.3594 5.57141 43.2203 5.11465C44.0813 4.65789 45.0466 4.4295 46.1162 4.4295C47.1858 4.4295 48.1511 4.65789 49.012 5.11465C49.873 5.57141 50.5513 6.23045 51.047 7.09177C51.5427 7.94004 51.7905 8.92535 51.7905 10.0477C51.7905 11.17 51.5361 12.1618 51.0274 13.0232C50.5317 13.8714 49.8469 14.5239 48.9729 14.9807C48.112 15.4375 47.1467 15.6658 46.0771 15.6658ZM46.0771 12.7687C46.7162 12.7687 47.2576 12.5338 47.7011 12.064C48.1576 11.5941 48.3859 10.922 48.3859 10.0477C48.3859 9.1733 48.1642 8.50121 47.7207 8.0314C47.2902 7.56159 46.7554 7.32668 46.1162 7.32668C45.464 7.32668 44.9226 7.56159 44.4922 8.0314C44.0617 8.48816 43.8465 9.16025 43.8465 10.0477C43.8465 10.922 44.0552 11.5941 44.4726 12.064C44.9031 12.5338 45.4379 12.7687 46.0771 12.7687Z" fill="#3F4255"/>
<path d="M70.2167 4.58611L67.2621 15.5092H63.564L61.8422 8.42291L60.0616 15.5092H56.3831L53.409 4.58611H56.7549L58.3007 12.3967L60.1399 4.58611H63.6814L65.5403 12.3576L67.0665 4.58611H70.2167Z" fill="#3F4255"/>
<path d="M79.0257 15.5092L75.3472 10.8894V15.5092H72.6079V0.0119731H75.3472V9.26465L78.9866 4.66441H82.5477L77.7735 10.1064L82.5869 15.5092H79.0257Z" fill="#3F4255"/>
<path d="M86.3863 3.24846C85.9036 3.24846 85.4993 3.09838 85.1732 2.79822C84.8601 2.48501 84.7036 2.10003 84.7036 1.64327C84.7036 1.1865 84.8601 0.808043 85.1732 0.507885C85.4993 0.194677 85.9036 0.0380734 86.3863 0.0380734C86.8689 0.0380734 87.2668 0.194677 87.5798 0.507885C87.906 0.808043 88.069 1.1865 88.069 1.64327C88.069 2.10003 87.906 2.48501 87.5798 2.79822C87.2668 3.09838 86.8689 3.24846 86.3863 3.24846ZM87.7521 4.66441V15.5092H85.0128V4.66441H87.7521Z" fill="#3F4255"/>
<path d="M94.6262 6.91559V12.1618C94.6262 12.5272 94.711 12.7948 94.8806 12.9644C95.0632 13.121 95.3633 13.1993 95.7807 13.1993H97.0525V15.5092H95.3306C93.0218 15.5092 91.8674 14.3869 91.8674 12.1423V6.91559H90.576V4.66441H91.8674L91.8323 0.0119629H94.5912L94.6262 4.66441H97.0525V6.91559H94.6262Z" fill="#3F4255"/>
<path d="M99.2967 10.0868C99.2967 8.9645 99.525 7.98572 99.9815 7.1505C100.438 6.30223 101.071 5.64971 101.879 5.19295C102.688 4.72314 103.614 4.48823 104.658 4.48823C106.001 4.48823 107.11 4.82754 107.984 5.50616C108.871 6.17172 109.465 7.11135 109.765 8.32503H106.81C106.654 7.85522 106.386 7.48981 106.008 7.2288C105.643 6.95474 105.186 6.81772 104.638 6.81772C103.856 6.81772 103.236 7.10482 102.78 7.67904C102.323 8.2402 102.095 9.0428 102.095 10.0868C102.095 11.1178 102.323 11.9204 102.78 12.4946C103.236 13.0558 103.856 13.3364 104.638 13.3364C105.747 13.3364 106.471 12.8404 106.81 11.8486H109.765C109.465 13.0232 108.871 13.9563 107.984 14.6479C107.097 15.3396 105.988 15.6854 104.658 15.6854C103.614 15.6854 102.688 15.457 101.879 15.0003C101.071 14.5305 100.438 13.8779 99.9815 13.0427C99.525 12.1945 99.2967 11.2092 99.2967 10.0868Z" fill="#3F4255"/>
<path d="M118.855 4.50781C119.676 4.50781 120.407 4.69051 121.046 5.05592C121.685 5.40828 122.181 5.93682 122.533 6.64154C122.898 7.3332 123.081 8.16843 123.081 9.1472V15.5092H120.342V9.51914C120.342 8.65781 120.126 7.99877 119.696 7.54201C119.266 7.0722 118.679 6.83729 117.935 6.83729C117.178 6.83729 116.578 7.0722 116.135 7.54201C115.704 7.99877 115.489 8.65781 115.489 9.51914V15.5092H112.75V0.0119629H115.489V6.01512C115.841 5.54531 116.311 5.1799 116.898 4.91889C117.485 4.64483 118.137 4.50781 118.855 4.50781Z" fill="#3F4255"/>
<path d="M136.741 9.85192C136.741 10.2434 136.715 10.5958 136.663 10.909H128.738C128.804 11.692 129.078 12.3054 129.56 12.7491C130.043 13.1928 130.636 13.4147 131.341 13.4147C132.358 13.4147 133.082 12.9775 133.513 12.1031H136.467C136.154 13.1471 135.554 14.0085 134.667 14.6871C133.78 15.3526 132.691 15.6854 131.399 15.6854C130.356 15.6854 129.417 15.457 128.582 15.0003C127.76 14.5305 127.114 13.8714 126.645 13.0232C126.188 12.1749 125.96 11.1961 125.96 10.0868C125.96 8.9645 126.188 7.9792 126.645 7.13092C127.101 6.28265 127.74 5.63014 128.562 5.17337C129.384 4.71661 130.33 4.48823 131.399 4.48823C132.43 4.48823 133.35 4.71009 134.158 5.1538C134.98 5.59751 135.613 6.23045 136.056 7.05262C136.513 7.86174 136.741 8.79484 136.741 9.85192ZM133.904 9.0689C133.891 8.36418 133.637 7.80302 133.141 7.38541C132.645 6.95474 132.039 6.73941 131.321 6.73941C130.643 6.73941 130.069 6.94822 129.599 7.36583C129.143 7.77039 128.862 8.33808 128.758 9.0689H133.904Z" fill="#3F4255"/>
<path d="M145.726 4.50781C147.017 4.50781 148.061 4.91889 148.856 5.74106C149.652 6.55018 150.05 7.68556 150.05 9.1472V15.5092H147.311V9.51914C147.311 8.65781 147.095 7.99877 146.665 7.54201C146.235 7.0722 145.648 6.83729 144.904 6.83729C144.147 6.83729 143.547 7.0722 143.104 7.54201C142.673 7.99877 142.458 8.65781 142.458 9.51914V15.5092H139.719V4.66441H142.458V6.01512C142.823 5.54531 143.286 5.1799 143.847 4.91889C144.421 4.64483 145.047 4.50781 145.726 4.50781Z" fill="#3F4255"/>
</g>
</g>
</svg>
